<?xml version="1.0" encoding="UTF-8" standalone="no"?>
<!DOCTYPE svg PUBLIC "-//W3C//DTD SVG 1.1//EN" "http://www.w3.org/Graphics/SVG/1.1/DTD/svg11.dtd">
<svg width="100%" height="100%" viewBox="0 0 596 842" version="1.1" xmlns="http://www.w3.org/2000/svg" xmlns:xlink="http://www.w3.org/1999/xlink" xml:space="preserve" xmlns:serif="http://www.serif.com/" style="fill-rule:evenodd;clip-rule:evenodd;stroke-linejoin:round;stroke-miterlimit:2;">
    <g transform="matrix(0.17974,0,0,0.17974,111.902,6.61502)">
        <g id="Layer-1" serif:id="Layer 1">
            <path id="path2679" d="M1147.88,696.049C644.622,696.246 229.029,1106.88 222.791,1610.1L1029.16,1610.1C1046.42,1597.21 1068.93,1582.77 1093.17,1571.19C1065.33,1571.82 1002.24,1604.47 1002.24,1604.47C1002.24,1604.47 1024.28,1569.7 1034.51,1564.15C1044.77,1558.61 1125.13,1531.7 1125.13,1531.7C1125.13,1531.7 1063.53,1548.28 994.645,1555.35C1054.13,1533.2 1156.99,1512.16 1156.99,1512.16C1156.99,1512.16 1114.42,1500.4 1069.18,1515.24C1106.69,1471.25 1146.55,1469.1 1164.3,1465.04C1182.05,1460.99 1212.53,1467.09 1263.14,1486.22C1201.71,1451.97 1139.73,1441.26 1139.73,1441.26C1139.73,1441.26 1159.48,1433.21 1167.39,1432.49C1172.52,1433.98 1219.7,1448.47 1276,1481.23C1266.29,1452.25 1219.08,1443.93 1219.08,1443.93C1219.08,1443.93 1252.36,1444 1273.54,1444.59C1294.72,1445.18 1344.96,1481.3 1344.96,1481.3C1344.96,1481.3 1341.91,1465.84 1324.16,1455.16C1355.25,1460.75 1378.06,1467.43 1398.38,1471.39C1401.88,1468.75 1403.41,1465.39 1403.47,1461.54C1394.14,1452.08 1384.93,1438.69 1382.57,1437.38C1378.96,1435.37 1373.59,1450.86 1373.59,1450.86L1347.31,1434.4C1347.31,1434.4 1353.34,1417.27 1349.39,1395.02C1341.76,1422.82 1334.8,1432.7 1330.71,1436.76C1326.62,1440.81 1312.02,1439.56 1312.02,1439.56C1312.02,1439.56 1321.49,1400.53 1320.62,1380.11C1307.72,1402.12 1304.85,1419.21 1304.85,1419.21L1276.83,1403.96C1276.83,1403.96 1277.39,1384.72 1285.88,1366.03C1276.63,1373.76 1265.67,1397.13 1265.67,1397.13C1265.67,1397.13 1253.85,1388.77 1254.92,1377.89C1256,1367 1267.58,1341.97 1267.58,1341.97C1267.58,1341.97 1244.04,1354.18 1231.35,1378.79C1216.1,1376.02 1217.8,1371.65 1217.8,1371.65C1217.8,1371.65 1222.2,1337.57 1222.51,1335.18C1222.82,1332.79 1206.18,1370.88 1204.03,1384.51C1203.24,1350.92 1223.45,1308.52 1223.45,1308.52C1223.45,1308.52 1179.21,1341.63 1169.71,1346.72C1160.21,1351.82 1143.95,1327.34 1121.49,1339.96C1129.15,1315.31 1153.63,1276.45 1153.63,1276.45C1153.63,1276.45 1119.79,1285.95 1087.14,1371.86C1088.42,1337.82 1119.89,1284.08 1141.42,1264.18C1111.33,1277.01 1076.18,1333.69 1076.18,1333.69L1037.39,1315.53C1037.39,1315.53 1055.76,1264.87 1127.07,1234.75C1088.14,1242.89 1047.54,1258.53 1021.37,1301.76C1005.77,1286.92 962.019,1271.84 962.019,1271.84C962.019,1271.84 1051.67,1226.84 1108.04,1202.85C1035.03,1217.9 963.613,1258.01 963.613,1258.01L939.94,1241.3C961.884,1228.44 1085.47,1178.41 1098.05,1175.12C1110.6,1171.83 1120.69,1178.24 1139.03,1185.97C1157.37,1193.7 1319.54,1293.61 1413.42,1419.14C1414.42,1421.12 1415.33,1423.16 1416.19,1425.21C1417.16,1425.69 1418.13,1426.08 1419.11,1426.35C1417.1,1417.13 1413.07,1403.82 1403.47,1384.23C1387.04,1350.71 1373.03,1331.33 1347.03,1318.61C1363.67,1322.42 1386.14,1316.04 1386.14,1316.04C1386.14,1316.04 1321.17,1302.56 1289.45,1279.33C1328.21,1298.12 1380.73,1298.85 1380.73,1298.85C1380.73,1298.85 1364.89,1295 1329.7,1278.71C1333.38,1245.81 1289.21,1206.05 1266.5,1173.11C1278.15,1181.02 1307.72,1189.43 1337.54,1180.63C1303.63,1154.28 1257.94,1145.62 1223.38,1151.09C1260.71,1129.7 1313.83,1160.11 1313.83,1160.11C1313.83,1160.11 1283.66,1141.63 1259.78,1126.35C1235.89,1111.06 1228.65,1062.59 1220.33,1017.87C1212.01,973.15 1189.61,948.255 1189.61,948.255C1189.61,948.255 1232.22,959.904 1255.52,973.806C1278.81,987.708 1286.36,1041.2 1286.36,1041.2C1286.36,1041.2 1298.78,1007.16 1289.24,987.985C1314.45,998.87 1352.89,1028.13 1357.5,1036.69C1362.11,1045.29 1345.62,1103.39 1345.62,1103.39C1345.62,1103.39 1364.09,1078.12 1379.86,1014.06C1381.94,1049.59 1353,1114.56 1353,1114.56C1353,1114.56 1378.82,1086.86 1383.02,1052.64C1407.08,1073.27 1420.81,1111.78 1422.71,1130.26C1424.62,1148.74 1393.32,1209.03 1393.32,1209.03C1393.32,1209.03 1419.94,1162.75 1437.73,1153.8C1429.68,1179.38 1443.58,1214.57 1448.19,1241.61C1452.77,1268.65 1429.02,1318.29 1429.02,1318.29C1429.02,1318.29 1486.88,1217.76 1518.46,1197.55C1460.57,1250.56 1429.82,1343.5 1429.82,1343.5C1429.82,1343.5 1452.49,1307.41 1470.07,1282.52C1445.94,1329.8 1434.85,1398.79 1433.84,1431.66C1436.44,1434.26 1440.18,1436.06 1444.9,1436.86C1463.65,1409.57 1481.54,1364.47 1474.85,1324.91C1495.48,1342.53 1506.68,1362.63 1508.38,1365.82C1505.81,1360.93 1482.13,1314.72 1483.9,1271.77C1499.12,1312.3 1527.69,1342.77 1527.69,1342.77C1527.69,1342.77 1518.67,1272.68 1505.36,1250.21C1559.2,1224.94 1592.97,1166.18 1597.33,1133.28C1610.44,1163.02 1625.07,1180.74 1625.07,1180.74C1625.07,1180.74 1615.18,1138.62 1606,1120.38C1627.63,1114.59 1683.52,1015.13 1689.55,969.753C1738.12,1119.13 1724.67,1186.28 1724.67,1186.28C1724.67,1186.28 1688.44,1202.68 1648.36,1234.33C1677.48,1224.14 1718.66,1211.24 1718.66,1211.24C1718.66,1211.24 1727.89,1283.49 1674.74,1332.65C1656.54,1337.68 1597.02,1339.75 1597.02,1339.75C1597.02,1339.75 1641.67,1347.62 1666.53,1345.71C1626.63,1383.75 1563.29,1406.38 1516.07,1413.25C1539.71,1417.16 1558.02,1413.25 1558.02,1413.25C1558.02,1413.25 1491.39,1436.34 1451.45,1449.44C1450.69,1452.25 1451.66,1454.4 1455.34,1454.95C1528.21,1433.74 1645.07,1410.09 1731.32,1440.39C1829.26,1474.82 1846.31,1533.34 1833.38,1573.59C1829.57,1585.54 1822.12,1597.96 1812.45,1610.1L2073.25,1610.1C2067.01,1106.77 1651.24,696.089 1147.88,696.049ZM1281.13,1064.81C1290.6,1077.77 1299.43,1091.09 1307.68,1104.75C1311.85,1111.54 1315.97,1118.37 1319.85,1125.34C1323.91,1132.2 1327.69,1139.24 1331.47,1146.24C1346.48,1174.32 1360.11,1203.13 1372.1,1232.63C1384.27,1262.07 1394.77,1292.16 1404.2,1322.6C1413.25,1353.17 1421.08,1384.1 1428.05,1415.43C1424.65,1383.54 1419.14,1351.82 1411.2,1320.62C1403.13,1289.49 1392.83,1258.91 1380.69,1229.1C1368.39,1199.35 1354.21,1170.34 1337.74,1142.67C1321.35,1115.04 1302.9,1088.42 1281.13,1064.81ZM1687.33,1068.04C1680.57,1083.84 1674.64,1099.89 1667.95,1115.67L1658.04,1139.35L1653.15,1151.2L1647.95,1162.92L1637.68,1186.39L1626.83,1209.58C1623.3,1217.35 1619.55,1225.01 1615.7,1232.63C1611.82,1240.26 1608.25,1247.99 1604.09,1255.44C1588.46,1285.74 1571.22,1315.21 1551.74,1343.15C1541.93,1357.05 1531.71,1370.68 1520.65,1383.68C1509.73,1396.78 1497.7,1408.95 1485.32,1420.84C1499.05,1410.58 1511.81,1398.96 1524.01,1386.76C1536,1374.35 1547.17,1361.14 1557.61,1347.41C1578.58,1319.96 1596.36,1290.29 1612.34,1259.78C1628.01,1229.13 1642.57,1197.86 1654.67,1165.69C1661.22,1149.82 1666.46,1133.41 1672.25,1117.26C1675.02,1109.15 1677.38,1100.87 1679.94,1092.68C1682.51,1084.5 1684.94,1076.29 1687.33,1068.04ZM717.409,1141.32C717.409,1141.32 622.367,1199.4 587.181,1278.6C476.346,1243.42 391.868,1292.66 391.868,1292.66C437.658,1248.65 490.415,1231.08 578.401,1246.92C606.531,1169.49 717.409,1141.32 717.409,1141.32ZM869.445,1428.98C869.445,1428.98 805.765,1450.96 774.722,1493.15C713.819,1457.97 657.56,1476.13 657.56,1476.13C690.288,1456.06 723.744,1452.51 773.631,1473.31C800.305,1431.21 869.445,1428.98 869.445,1428.98ZM1611.13,1438.66C1617.02,1475.16 1601.04,1508.31 1601.04,1508.31L1572.92,1503.7C1572.92,1503.7 1572.79,1489.87 1567.62,1471.74C1567.69,1484.74 1559.75,1507.23 1559.75,1507.23C1559.75,1507.23 1553.65,1510.77 1547.97,1508.17C1550.46,1501.69 1546.68,1478.98 1546.68,1478.98C1546.68,1478.98 1542.97,1493.68 1538.19,1505.99C1530.7,1507.03 1516.28,1502.62 1516.28,1502.62C1516.28,1502.62 1520.96,1485.57 1518.92,1467.47C1517.46,1481.44 1506.23,1502.28 1506.23,1502.28C1506.23,1502.28 1493.19,1505.5 1486.64,1499.02C1497.63,1485.95 1495.1,1460.99 1495.1,1460.99C1495.1,1460.99 1485.53,1486.78 1478.04,1494.89C1467.61,1492.4 1455.4,1485.33 1455.4,1485.33C1455.4,1485.33 1464.04,1475.27 1463.59,1472.36C1463.27,1470.35 1457.8,1467.65 1446.91,1465.6C1443.16,1471.42 1441.33,1478.91 1441.47,1486.54C1448.57,1492.23 1456.03,1498.01 1461.16,1501.55C1473.85,1510.25 1493.85,1509.97 1520.4,1528.73C1503.07,1525.4 1482.96,1533.69 1482.96,1533.69C1482.96,1533.69 1518.22,1537.64 1528.27,1538.99C1538.33,1540.38 1565.51,1556.39 1595.7,1598.55C1557.98,1583.5 1525.75,1589.19 1526.34,1589.85C1526.71,1590.25 1555.42,1595.93 1592.65,1610.1L1680.67,1610.1C1689.48,1599.73 1735.42,1544.96 1752.33,1508.72C1742.1,1525.99 1693.77,1572.55 1693.77,1572.55L1689.83,1567.49C1689.83,1567.49 1722.06,1524.92 1733.4,1489.59C1724.25,1508.07 1687.5,1560.27 1687.5,1560.27C1687.5,1560.27 1674.22,1550.81 1664.2,1542.21C1671.45,1514.38 1675.71,1484.15 1663.89,1449.69C1663.68,1468.48 1662.65,1518.81 1648.5,1532.99C1633.53,1513.82 1620.53,1513.89 1620.53,1513.89C1620.53,1513.89 1625.73,1480.12 1611.13,1438.66ZM1402.5,1488.37C1401.18,1489.34 1399.76,1490.35 1398.2,1491.39C1378.75,1504.77 1361.39,1521.37 1338.47,1544.84C1315.56,1568.31 1264.77,1602.39 1264.77,1602.39C1264.77,1602.39 1277.56,1573.1 1306.23,1528.55C1278.28,1542.77 1257.28,1590 1249.34,1610.1L1383.43,1610.1C1390,1571.49 1397.31,1536.48 1405.59,1507.06C1406.49,1502.1 1406.25,1495.06 1402.5,1488.37ZM1374.24,1490.05C1364.34,1490.17 1354.44,1491.43 1344.64,1492.81C1331.54,1494.79 1318.68,1497.94 1305.89,1501.41C1280.4,1508.59 1255.65,1518.19 1231.7,1529.38C1207.81,1540.76 1184.69,1553.62 1162.5,1567.94C1142.6,1580.66 1123.8,1595 1105.68,1610.1L1107.59,1610.1C1115.89,1604.75 1124.08,1599.25 1132.65,1594.35C1138.27,1590.92 1143.75,1587.35 1149.4,1584.05L1166.31,1574.1C1189.02,1561.21 1212.04,1548.87 1235.65,1537.81L1253.43,1529.66L1271.46,1522.07L1289.66,1514.93L1308.07,1508.34C1320.48,1504.36 1332.89,1500.3 1345.58,1497.28C1358.19,1493.99 1371.06,1491.49 1384.13,1490.35C1380.83,1490.1 1377.54,1490.01 1374.24,1490.05ZM1430.72,1496.63C1420.76,1524.08 1413.53,1563.33 1408.32,1610.1L1442.97,1610.1C1443.07,1600.07 1443.91,1589.78 1446.14,1580.24C1451.73,1556.57 1443.34,1521.24 1434.33,1496.66C1433.15,1496.6 1431.93,1496.56 1430.72,1496.63ZM1457.1,1516.73C1465.32,1528.13 1473.19,1539.68 1480.37,1551.71C1487.79,1563.53 1494.48,1575.8 1501.17,1588.01C1505,1595.31 1508.68,1602.68 1512.3,1610.1L1521.55,1610.1C1517.06,1601.42 1512.43,1592.83 1507.44,1584.43C1492.95,1560.2 1476.41,1537.11 1457.1,1516.73ZM1755.38,1520.17C1731.12,1556.74 1690.49,1600.18 1681.09,1610.1L1696.97,1610.1C1699.55,1606.77 1745.6,1547.37 1755.38,1520.17ZM1782.63,1533.1C1771.76,1557.15 1750.19,1587.78 1733.38,1610.1L1745.02,1610.1C1761.53,1585.95 1779.38,1555.64 1782.63,1533.1ZM1261.96,1558.05C1252.55,1569.76 1244.11,1588.78 1237.16,1610.1L1247.36,1610.1C1249.41,1599.8 1253.49,1582.25 1261.96,1558.05ZM1162.4,1595.15C1159.73,1599.95 1157.83,1605.02 1156.27,1610.1L1160.85,1610.1C1161.28,1605.14 1161.77,1600.14 1162.4,1595.15ZM1475.37,1595.36C1473.15,1599.41 1470.78,1604.6 1468.4,1610.1L1473.25,1610.1C1474.01,1605.2 1474.79,1600.3 1475.37,1595.36ZM1535.49,1602.26C1535.49,1602.26 1545.87,1605.75 1558.2,1610.1L1568.78,1610.1C1548.82,1604.79 1535.49,1602.26 1535.49,1602.26ZM1230.69,1603.05C1230.69,1603.05 1229.32,1606.12 1227.45,1610.1L1229,1610.1C1229.9,1606.25 1230.69,1603.05 1230.69,1603.05ZM222.791,1633.04C223.24,1673.36 226.323,1713.6 232.02,1753.52L978.279,1753.52C984.539,1739.14 991.473,1722.99 994.817,1714.37C1000.79,1698.96 1015.79,1670.56 1048.71,1633.04L1035.14,1633.04C1005.68,1656.22 974.398,1692.18 974.398,1692.18C974.398,1692.18 990.205,1650.24 997.485,1638.8C998.464,1637.27 1000.14,1635.29 1002.26,1633.04L222.791,1633.04ZM1125.64,1633.04C1113.23,1658.5 1099.42,1693.2 1091.78,1704.84C1081.31,1720.78 1047.06,1737.94 1047.06,1737.94C1047.06,1737.94 1057.42,1712.46 1090.77,1643.54C1063.03,1668.33 1041.4,1713.1 1024.72,1753.52L1364.09,1753.52C1368.64,1711.09 1373.79,1670.51 1379.64,1633.04L1230.45,1633.04C1227.5,1644.46 1224.95,1656.04 1223,1667.15C1220.45,1661.06 1222.01,1646.66 1224.35,1633.04L1214.86,1633.04C1212.87,1636.06 1210.83,1638.92 1208.78,1641.19C1197.97,1653.18 1175.08,1655.71 1161.67,1680.5C1159.87,1670.58 1158.91,1653.15 1159.51,1633.04L1151.2,1633.04C1149.65,1642.71 1148.47,1650.93 1145.48,1654.74C1138.89,1663.13 1123.6,1665.76 1114.35,1679.8C1114.35,1679.8 1117.68,1662.51 1129.04,1633.04L1125.64,1633.04ZM1405.93,1633.04C1402.55,1669.69 1400.31,1710.38 1398.96,1753.52L1437.96,1753.52C1450.09,1719.29 1473.16,1674.59 1479.05,1638.24C1474.78,1659.01 1450.79,1701.3 1450.79,1701.3C1450.79,1701.3 1461.3,1670.98 1469.13,1633.04L1459.25,1633.04C1453.18,1649.34 1448.5,1663.62 1448.5,1663.62C1448.5,1663.62 1445.58,1650.56 1443.97,1633.04L1405.93,1633.04ZM1523.01,1633.04C1527.58,1643.24 1532,1653.51 1536.14,1663.89C1546.58,1689.75 1555.49,1716.2 1563.81,1742.86L1567.01,1753.52L1573.83,1753.52C1572.83,1749.3 1571.89,1745.08 1570.78,1740.89C1563.77,1713.61 1555.14,1686.67 1544.74,1660.43C1540.99,1651.21 1536.95,1642.09 1532.77,1633.04L1523.01,1633.04ZM1611.99,1633.04C1613.12,1633.89 1614.02,1634.7 1614.42,1635.4C1631.45,1657.92 1647.46,1710.98 1651.26,1753.52L2063.87,1753.52C2069.62,1713.61 2072.75,1673.36 2073.25,1633.04L1791.23,1633.04C1770.45,1652.72 1745.47,1670.05 1722.93,1681.02L1715.37,1649.79C1715.37,1649.79 1720.89,1643.04 1728.48,1633.04L1715.57,1633.04C1713.4,1635.73 1710.31,1639.56 1710.31,1639.56L1707.04,1633.04L1643.21,1633.04C1648.66,1635.97 1654.11,1639.01 1659.52,1642.3C1652.36,1638.98 1645.19,1635.91 1638.1,1633.04L1611.99,1633.04ZM1484.66,1658.63C1484.66,1658.63 1465.36,1706.85 1445.34,1753.52L1472.44,1753.52C1467.12,1722.48 1484.66,1658.63 1484.66,1658.63ZM561.614,1664.94C561.614,1664.94 522.15,1684.06 505.309,1713.74C463.205,1695.71 428.203,1711.78 428.203,1711.78C447.821,1696.31 469.218,1691.43 503.083,1700.99C517.103,1671.72 561.614,1664.94 561.614,1664.94ZM1060.3,1666.94C1024.33,1693.53 1019.02,1736.67 1009.73,1753.52L1019.54,1753.52C1026.81,1729.82 1039.49,1702.05 1060.3,1666.94ZM1604.27,1732.54C1604.27,1732.54 1610.37,1743.38 1616.13,1753.52L1630.88,1753.52C1617.79,1740.69 1604.27,1732.54 1604.27,1732.54ZM1540.3,1744.95C1537.2,1746.32 1533.4,1749.41 1529.29,1753.52L1535.14,1753.52C1536.93,1750.57 1538.44,1747.97 1540.3,1744.95ZM1555.31,1752.06C1555.16,1752.56 1555.01,1753.01 1554.86,1753.52L1554.98,1753.52C1555.06,1753.06 1555.26,1752.48 1555.31,1752.06ZM238.315,1789.2C244.842,1825.6 253.544,1861.57 264.375,1896.93L1351.22,1896.93C1353.93,1860.43 1357,1824.36 1360.42,1789.2L238.315,1789.2ZM1398.05,1789.2C1397.36,1824.12 1397.15,1860.2 1397.4,1896.93L1505.12,1896.93C1503.73,1886.08 1503.82,1875.61 1506.47,1869.3C1511.1,1858.28 1525.68,1838.36 1543.27,1789.2L1539.58,1789.2C1524.4,1816.8 1503.84,1846.69 1503.84,1846.69L1493.23,1826.07C1493.23,1826.07 1501.51,1810.83 1513.98,1789.2L1500.59,1789.2C1493.49,1799.2 1488.51,1806.9 1488.51,1806.9C1488.51,1806.9 1486.97,1799.9 1483.84,1789.2L1398.05,1789.2ZM1577.14,1789.2C1580.36,1800.67 1582.88,1812.34 1586.24,1823.85C1584.73,1812.28 1582.99,1800.72 1581.03,1789.2L1577.14,1789.2ZM1637.36,1789.2C1640.17,1793.64 1642.86,1797.75 1645.07,1800.8C1658.28,1819.03 1665.84,1851.97 1659.21,1877.76C1655.68,1857.38 1635.01,1807.07 1610.82,1790.91C1637.01,1829.75 1627.92,1870.64 1616.68,1896.93L2031.42,1896.93C2042.45,1861.58 2051.35,1825.61 2058.07,1789.2L1637.36,1789.2ZM1561.9,1827.77C1561.9,1827.77 1546,1860.47 1529.21,1896.93L1540,1896.93C1549.86,1865.82 1561.9,1827.77 1561.9,1827.77ZM1597.26,1842.33C1597.1,1858.43 1594,1877.32 1589.37,1896.93L1602.39,1896.93C1602.57,1879.88 1601.7,1858.45 1597.26,1842.33ZM1560.97,1870.55C1559.01,1877.73 1555.69,1887.03 1551.89,1896.93L1556.55,1896.93C1558.14,1888.75 1559.66,1880.13 1560.97,1870.55ZM281.328,1945.38C293.469,1977.79 307.418,2009.49 323.111,2040.34L1342.34,2040.34C1343.97,2008.88 1345.77,1977.19 1347.86,1945.38L281.328,1945.38ZM1397.95,1945.38C1398.46,1977.09 1399.35,2008.79 1400.34,2040.34L1973.17,2040.34C1988.84,2009.49 2002.76,1977.79 2014.87,1945.38L1575.55,1945.38C1565.03,1977.64 1553.14,2007.45 1545.78,2025.37C1532.22,2003.63 1531.29,1986.33 1533.82,1975.48C1535,1970.42 1539.19,1960.55 1544.13,1945.38L1531.57,1945.38C1523.69,1963.08 1517.01,1977.43 1517.01,1977.43C1517.01,1977.43 1517.53,1969.44 1524.79,1945.38L1397.95,1945.38ZM357.171,2101.53C374.397,2129.93 393.139,2157.38 413.316,2183.76L1336.05,2183.76C1336.99,2157.15 1338.09,2129.61 1339.34,2101.53L357.171,2101.53ZM1402.49,2101.53C1403.6,2129.66 1404.8,2157.02 1406.13,2183.76L1882.99,2183.76C1903.18,2157.38 1921.93,2129.93 1939.16,2101.53L1402.49,2101.53ZM476.049,2257.7C499.387,2282.19 524.05,2305.39 549.927,2327.18L1332,2327.18C1332.47,2305.37 1333.03,2282.23 1333.71,2257.7L476.049,2257.7ZM1410.09,2257.7C1411.51,2282.23 1412.93,2305.35 1414.37,2327.18L1746.69,2327.18C1772.38,2305.37 1796.86,2282.18 1820.03,2257.7L1410.09,2257.7ZM670.449,2413.87C706.014,2435.24 742.975,2454.19 781.083,2470.6L1329.93,2470.6C1330.02,2457.15 1330.31,2435.7 1330.58,2413.87L670.449,2413.87ZM1420.52,2413.87C1422.04,2433.36 1423.45,2450.75 1424.64,2464.04C1424.9,2465.83 1425.19,2468.06 1425.5,2470.6L1516.23,2470.6C1554.11,2454.16 1590.85,2435.21 1626.2,2413.87L1420.52,2413.87ZM1424.64,2464.04C1422.46,2449.48 1421.37,2458.2 1420.79,2470.6L1425.27,2470.6C1425.04,2468.1 1424.89,2466.84 1424.64,2464.04Z" style="fill-rule:nonzero;"/>
        </g>
    </g>
</svg>
